<mxfile host="app.diagrams.net" agent="Mozilla/5.0 (Windows NT 10.0; Win64; x64) AppleWebKit/537.36 (KHTML, like Gecko) Chrome/128.0.0.0 Safari/537.36 Edg/128.0.0.0" version="24.7.8">
  <diagram name="Page-1" id="aAPk2i1qNNpjhUnv4Urg">
    <mxGraphModel dx="2066" dy="1109" grid="1" gridSize="10" guides="1" tooltips="1" connect="1" arrows="1" fold="1" page="1" pageScale="1" pageWidth="827" pageHeight="1169" math="0" shadow="0">
      <root>
        <mxCell id="0" />
        <mxCell id="1" parent="0" />
        <mxCell id="JRYB5nmN3bFoew6HLBh7-2" value="&lt;font style=&quot;font-size: 15px;&quot;&gt;ブラウザ&lt;/font&gt;" style="whiteSpace=wrap;html=1;align=center;" vertex="1" parent="1">
          <mxGeometry x="40" y="40" width="160" height="50" as="geometry" />
        </mxCell>
        <mxCell id="JRYB5nmN3bFoew6HLBh7-3" value="&lt;font style=&quot;font-size: 15px;&quot;&gt;サーバー&lt;/font&gt;" style="whiteSpace=wrap;html=1;align=center;" vertex="1" parent="1">
          <mxGeometry x="620" y="40" width="160" height="50" as="geometry" />
        </mxCell>
        <mxCell id="JRYB5nmN3bFoew6HLBh7-4" value="" style="endArrow=none;dashed=1;html=1;rounded=0;entryX=0.5;entryY=1;entryDx=0;entryDy=0;" edge="1" parent="1" target="JRYB5nmN3bFoew6HLBh7-2">
          <mxGeometry width="50" height="50" relative="1" as="geometry">
            <mxPoint x="120" y="1120" as="sourcePoint" />
            <mxPoint x="440" y="340" as="targetPoint" />
          </mxGeometry>
        </mxCell>
        <mxCell id="JRYB5nmN3bFoew6HLBh7-5" value="" style="endArrow=none;dashed=1;html=1;rounded=0;entryX=0.5;entryY=1;entryDx=0;entryDy=0;" edge="1" parent="1">
          <mxGeometry width="50" height="50" relative="1" as="geometry">
            <mxPoint x="700" y="1120" as="sourcePoint" />
            <mxPoint x="699.5" y="90" as="targetPoint" />
          </mxGeometry>
        </mxCell>
        <mxCell id="JRYB5nmN3bFoew6HLBh7-7" value="&lt;font style=&quot;font-size: 15px;&quot;&gt;接続を要求する&lt;/font&gt;&lt;div&gt;&lt;span style=&quot;font-size: 15px;&quot;&gt;以下を含むクライアントHelloメッセージを送る&lt;br&gt;&lt;/span&gt;&lt;div&gt;&lt;font style=&quot;font-size: 15px;&quot;&gt;・TLSバージョン&lt;/font&gt;&lt;/div&gt;&lt;div&gt;&lt;span style=&quot;font-size: 15px;&quot;&gt;・利用可能な暗号スイート&lt;/span&gt;&lt;/div&gt;&lt;div&gt;&lt;span style=&quot;font-size: 15px;&quot;&gt;・ランダムなバイト列(クライアントシークレット)&lt;/span&gt;&lt;/div&gt;&lt;/div&gt;" style="html=1;verticalAlign=bottom;endArrow=block;curved=0;rounded=0;" edge="1" parent="1">
          <mxGeometry width="80" relative="1" as="geometry">
            <mxPoint x="124" y="240" as="sourcePoint" />
            <mxPoint x="704" y="240" as="targetPoint" />
          </mxGeometry>
        </mxCell>
        <mxCell id="JRYB5nmN3bFoew6HLBh7-8" value="&lt;span style=&quot;font-size: 15px;&quot;&gt;ブラウザに返答する&lt;/span&gt;&lt;br&gt;&lt;div&gt;&lt;span style=&quot;font-size: 15px;&quot;&gt;以下を含むサーバーHelloメッセージを送る&lt;br&gt;&lt;/span&gt;&lt;div&gt;&lt;font style=&quot;font-size: 15px;&quot;&gt;・サーバー証明書&lt;/font&gt;&lt;/div&gt;&lt;div&gt;&lt;span style=&quot;font-size: 15px;&quot;&gt;・利用する暗号スイート&lt;/span&gt;&lt;/div&gt;&lt;div&gt;&lt;span style=&quot;font-size: 15px;&quot;&gt;・ランダムなバイト列(サーバーシークレット)&lt;/span&gt;&lt;/div&gt;&lt;/div&gt;" style="html=1;verticalAlign=bottom;endArrow=block;curved=0;rounded=0;" edge="1" parent="1">
          <mxGeometry width="80" relative="1" as="geometry">
            <mxPoint x="700" y="400" as="sourcePoint" />
            <mxPoint x="120" y="400" as="targetPoint" />
          </mxGeometry>
        </mxCell>
        <mxCell id="JRYB5nmN3bFoew6HLBh7-9" value="&lt;span style=&quot;font-size: 15px;&quot;&gt;サーバー証明書を検証する&lt;/span&gt;&lt;br&gt;&lt;div&gt;&lt;span style=&quot;font-size: 15px;&quot;&gt;証明書が信頼できる認証局（CA）によって署名されているか確認する&lt;/span&gt;&lt;/div&gt;" style="html=1;verticalAlign=bottom;endArrow=block;curved=0;rounded=0;" edge="1" parent="1">
          <mxGeometry width="80" relative="1" as="geometry">
            <mxPoint x="124" y="480" as="sourcePoint" />
            <mxPoint x="120" y="640" as="targetPoint" />
            <Array as="points">
              <mxPoint x="400" y="560" />
            </Array>
          </mxGeometry>
        </mxCell>
      </root>
    </mxGraphModel>
  </diagram>
</mxfile>
